<svg id="Layer_1" data-name="Layer 1" xmlns="http://www.w3.org/2000/svg" viewBox="0 0 377.12 521.05"><defs><style>.cls-1{fill:#78af00;}.cls-2{fill:#ba0000;}.cls-3,.cls-4{stroke:#000;}.cls-3{stroke-width:14.89px;}.cls-4{fill:#fff;stroke-miterlimit:10;}</style></defs><path class="cls-1" d="M1047.91,1085.18c-1.72,12.92-4.83,35.06-16,61.54a216.21,216.21,0,0,1-17.82,33.65c-10.82,14.47-30.2,36.12-60.86,51.47a179.58,179.58,0,0,1-24.5,9.89c-19.34,6.29-54.67,14.59-104.16,8.66q2.07-1.1,4.16-2.25c5.45-3,11-6.27,16.68-9.87a301.14,301.14,0,0,0,56.85-47l28.45-32.91s20.1-3.75,37.76-14.4a69.34,69.34,0,0,0,13.94-10.83,94.55,94.55,0,0,1-39.33,10.63,665.69,665.69,0,0,0,35-60.55c7.16-14.35,13.44-29,16.49-41.14-5.74,10.64-11.49,20.59-17.15,29.87a632.23,632.23,0,0,1-37.78,55.25c-30.64,40-52.35,58.32-61.36,65.56-8.72,7-16.38,12.39-21.87,16.06l-.4.27a117.2,117.2,0,0,0,5.63-11.17c.12-.28.25-.56.37-.85h0l0,0,0-.06,0-.08c.42-1,.87-2.1,1.29-3.19,3.74-9.46,7.58-22.45,8-36.56,0,0-.06-3.68,0-9.48h0a182.31,182.31,0,0,1,6.44-59.41,133.89,133.89,0,0,1,11.46-30.46A137.52,137.52,0,0,1,932,1009.4l0,0,0,0,0,0c.5-.38,2.8-2,10.56-6.47h0c2.49-1.43,5.54-3.16,9.28-5.24,7.5-4.17,17.76-9.75,31.74-17.15,0,0,39.84-19.05,51.46-45.52h1.49s12.86,63.34,13.11,98A270,270,0,0,1,1047.91,1085.18Z" transform="translate(-673.13 -835.91)"/><path class="cls-2" d="M941,982.52s-64.17,22.92-84.46,109c0,0-4.2,20.78-2.72,50.47,0,0,8.28,61.73-51,104.36h0c-73.36-11.63-129.61-78.29-129.61-158.78,0-88.69,68.28-160.58,152.5-160.58C871.7,927,913,948.52,941,982.52Z" transform="translate(-673.13 -835.91)"/><circle cx="36.89" cy="26.61" r="20.34"/><path class="cls-3" d="M726.61,872.42a108.4,108.4,0,0,1,47.06,65.65" transform="translate(-673.13 -835.91)"/><circle cx="251.62" cy="20.34" r="20.34"/><path class="cls-3" d="M908.16,866.15a108.38,108.38,0,0,0-47.06,65.66" transform="translate(-673.13 -835.91)"/><circle cx="91.29" cy="178.82" r="20.34"/><circle cx="154.06" cy="269.23" r="20.34"/><circle cx="67.92" cy="322.07" r="20.34"/><circle cx="217.78" cy="143.93" r="20.34"/><path class="cls-4" d="M733.24,1305.35l-1.89,1.16,2.07.84a11.53,11.53,0,0,1,5.63,4.46,13.28,13.28,0,0,1,2,7.45c0,5-1.26,9.73-5,13.23s-9.17,4.71-14.33,4.71H697.66c-.48,0-.56-.08-.56-.56v-56.4c0-.48.08-.56.56-.56h23.68c4.6,0,9.27,1,12.74,4.26s4.47,7.42,4.47,11.93A10.38,10.38,0,0,1,733.24,1305.35Zm-11.09-3.47c1.56-.64,5-10.54-3.82-10.54h-7.2v10.13C714.31,1300,719,1300.36,722.15,1301.88Zm2.7,21.56a6.39,6.39,0,0,0,1.77-4.76c0-7.38-10.46-7.66-15.49-6.06v12.52h9.12A6.39,6.39,0,0,0,724.85,1323.44Z" transform="translate(-673.13 -835.91)"/><path class="cls-4" d="M782.84,1295.09v38.59a.81.81,0,0,1-.55.89,48.21,48.21,0,0,1-8.5,2.42,48.74,48.74,0,0,1-8.93.91c-5.13,0-10.49-1.09-14.16-5s-4.7-8.7-4.7-13.74v-24.12c0-.48,0-.55.55-.55h12.1c.47,0,.55.07.55.55v24.37c0,1.74.2,4,1.38,5.37a5.36,5.36,0,0,0,4.28,1.72,10.72,10.72,0,0,0,4.17-.68l.68-.28v-30.5c0-.48,0-.55.56-.55h12C782.77,1294.54,782.84,1294.61,782.84,1295.09Z" transform="translate(-673.13 -835.91)"/><path class="cls-4" d="M821.18,1332.74c-3.87,3.51-9.16,4.54-14.24,4.54s-10.33-1-14.21-4.54c-3.69-3.32-5-7.84-5-12.73v-8.88c0-4.89,1.29-9.43,5-12.78,3.88-3.53,9.13-4.56,14.21-4.56s10.37,1,14.24,4.56c3.67,3.35,5,7.89,5,12.78V1320C826.16,1324.9,824.88,1329.42,821.18,1332.74Zm-18.56,11.06a5.71,5.71,0,0,0,4.32,1.64,5.77,5.77,0,0,0,4.36-1.64,6.13,6.13,0,0,0,1.48-4h13.38c-.08,4.74-1.41,8.79-5,12.07-3.87,3.53-9.13,4.56-14.24,4.56s-10.33-1-14.21-4.56c-3.59-3.28-4.9-7.33-5-12.07h13.38A6,6,0,0,0,802.62,1343.8Zm0-19.43a6.65,6.65,0,0,0,8.63,0,6.1,6.1,0,0,0,1.51-4.36v-8.88a6.31,6.31,0,0,0-1.48-4.38,5.77,5.77,0,0,0-4.36-1.64,5.71,5.71,0,0,0-4.32,1.64,6.29,6.29,0,0,0-1.51,4.38V1320A6.11,6.11,0,0,0,802.64,1324.37Zm22.56-33.26a6.87,6.87,0,0,1-5.18,2.05,7.15,7.15,0,0,1-5.33-2.05,7.62,7.62,0,0,1,0-10.36,7.19,7.19,0,0,1,5.35-2,7.05,7.05,0,0,1,5.18,2,7.74,7.74,0,0,1,0,10.36Zm-26.08,0a6.87,6.87,0,0,1-5.18,2.05,7.15,7.15,0,0,1-5.33-2.05,7.64,7.64,0,0,1,0-10.36,7.23,7.23,0,0,1,5.36-2,7.05,7.05,0,0,1,5.18,2,7.74,7.74,0,0,1,0,10.36Z" transform="translate(-673.13 -835.91)"/><path class="cls-1" d="M838.83,1336.62v-56.38c0-.48.08-.56.56-.56H852.3c.49,0,.56.08.56.56v44h22.27c.5,0,.55.08.55.56v11.86c0,.5,0,.55-.55.55H839.39C838.91,1337.17,838.83,1337.12,838.83,1336.62Z" transform="translate(-673.13 -835.91)"/><path class="cls-1" d="M903.53,1305.9a5.31,5.31,0,0,0-4.15-1.67c-3.82,0-5.51,2.47-5.51,6.1v11.1h0a6.19,6.19,0,0,0,1.78,4.31,7,7,0,0,0,5,1.66,20.07,20.07,0,0,0,10-2.47l.08,0,.07-.05a.45.45,0,0,1,.31-.1c.15,0,.25.15.32.25v0l5,6.81a1.92,1.92,0,0,1,.23.48c0,.15-.1.25-.25.35-4.76,3.66-10.36,5.09-16.33,5.09-5.1,0-10.13-1.16-14.11-4.51s-5.25-7.72-5.25-12.68v-9.31c0-4.82,1.18-9.53,5-12.73s8.93-4.29,13.89-4.29c4.7,0,9.55,1,13.2,4.19s4.68,8.14,4.68,12.83v7.64c0,.51-.08.56-.56.56H905v-9.11A6.49,6.49,0,0,0,903.53,1305.9Z" transform="translate(-673.13 -835.91)"/><path class="cls-1" d="M945.16,1313.33v-1.46a7.2,7.2,0,0,0-1.51-4.82c-1.31-1.49-3.52-1.79-5.38-1.79a26.18,26.18,0,0,0-5.23.58,17.71,17.71,0,0,0-4.65,1.46,1,1,0,0,1-.48.13c-.1,0-.23-.15-.28-.25l-3.8-8a6,6,0,0,1-.27-.63,31.35,31.35,0,0,1,7.39-3,37.18,37.18,0,0,1,9.56-1.21c12.47,0,17.78,6.73,17.78,18.94v21.61c0,.45-.1.65-.55.75h0a53.35,53.35,0,0,1-8.33,1.64,71.52,71.52,0,0,1-8.78.58c-4.75,0-10.79-.6-14.71-3.55-3.29-2.5-3.52-6-3.52-10.06,0-3.53.1-6.48,3-8.53,2.57-1.81,6-2.57,9.28-2.84v10.79a4,4,0,0,0,1.66,3.43,7.2,7.2,0,0,0,4.18,1.08,21.45,21.45,0,0,0,3.75-.35l.9-.15v-14.35Z" transform="translate(-673.13 -835.91)"/><path class="cls-1" d="M983.74,1290.7a14.59,14.59,0,0,0-1.86-.1,5.54,5.54,0,0,0-4.18,1.49,6.16,6.16,0,0,0-1.33,4.28v2h7.34c.48,0,.55.07.55.55v9.56c0,.48-.07.55-.55.55h-7.34v27.71c0,.47,0,.55-.53.55H963.79c-.48,0-.53-.08-.53-.55v-41.32c0-4.29.93-8.6,4.1-11.7s7.42-4.06,11.7-4.06a39.27,39.27,0,0,1,5.63.4c.43.08.48.31.48.73v9.49a1.67,1.67,0,0,1,0,.47Z" transform="translate(-673.13 -835.91)"/></svg>