<svg xmlns="http://www.w3.org/2000/svg" viewBox="0 0 900 600">
<defs>
 <linearGradient id="g" x1="0" x2="1"><stop stop-color="#111b13"/><stop offset="1" stop-color="#253b18"/></linearGradient>
 <filter id="s"><feDropShadow dx="0" dy="20" stdDeviation="25" flood-opacity=".3"/></filter>
</defs>
<rect width="900" height="600" rx="30" fill="transparent"/>
<g filter="url(#s)">
 <rect x="120" y="75" width="650" height="390" rx="20" fill="#0c120e" stroke="#66705f" stroke-width="5"/>
 <rect x="145" y="100" width="600" height="340" rx="10" fill="url(#g)"/>
 <circle cx="175" cy="125" r="6" fill="#8cc900"/><circle cx="195" cy="125" r="6" fill="#75806f"/><circle cx="215" cy="125" r="6" fill="#75806f"/>
 <text x="180" y="190" font-family="Arial" font-size="35" font-weight="700" fill="#f4f7f1">Build better.</text>
 <text x="180" y="230" font-family="Arial" font-size="35" font-weight="700" fill="#9be22c">Grow smarter.</text>
 <rect x="180" y="265" width="175" height="42" rx="21" fill="#8cc900"/>
 <text x="205" y="292" font-family="Arial" font-size="14" font-weight="700" fill="#081006">Explore</text>
 <rect x="500" y="175" width="170" height="170" rx="25" fill="#101a11" stroke="#33472c"/>
 <circle cx="585" cy="255" r="60" fill="#8cc900" opacity=".18"/>
 <circle cx="585" cy="255" r="36" fill="#8cc900"/>
</g>
<path d="M90 465h720l-45 50H135z" fill="#202920"/>
<g filter="url(#s)">
 <rect x="650" y="300" width="150" height="260" rx="25" fill="#0c120e" stroke="#737d70" stroke-width="4"/>
 <rect x="664" y="327" width="122" height="202" rx="15" fill="#172219"/>
 <text x="680" y="370" font-family="Arial" font-size="16" font-weight="700" fill="#f4f7f1">BugLeaf</text>
 <text x="680" y="400" font-family="Arial" font-size="20" font-weight="700" fill="#9be22c">Software</text>
 <rect x="680" y="435" width="90" height="28" rx="14" fill="#8cc900"/>
</g>
</svg>